<svg xmlns="http://www.w3.org/2000/svg" version="1.1" xmlns:xlink="http://www.w3.org/1999/xlink" xmlns:svgjs="http://svgjs.dev/svgjs" width="1000" height="1000" viewBox="0 0 1000 1000"><rect width="1000" height="1000" fill="#000000"></rect><g transform="matrix(0.7,0,0,0.7,149.57575757575756,385.8798449612402)"><svg viewBox="0 0 396 129" data-background-color="#ffffff" preserveAspectRatio="xMidYMid meet" height="325" width="1000" xmlns="http://www.w3.org/2000/svg" xmlns:xlink="http://www.w3.org/1999/xlink"><g id="tight-bounds" transform="matrix(1,0,0,1,0.2400000000000091,0.20989010989012513)"><svg viewBox="0 0 395.52 128.58021978021978" height="128.58021978021978" width="395.52"><g><svg viewBox="0 0 395.52 128.58021978021978" height="128.58021978021978" width="395.52"><g><svg viewBox="0 0 395.52 128.58021978021978" height="128.58021978021978" width="395.52"><g id="textblocktransform"><svg viewBox="0 0 395.52 128.58021978021978" height="128.58021978021978" width="395.52" id="textblock"><g><svg viewBox="0 0 395.52 128.58021978021978" height="128.58021978021978" width="395.52"><g transform="matrix(1,0,0,1,0,0)"><svg width="395.52" viewBox="1.25 -35 109.19000244140625 35.5" height="128.58021978021978" data-palette-color="url(#2a090675-8c89-4c8a-8ec1-102c8f619b06)"></svg></g></svg></g></svg></g></svg></g><g></g></svg></g><defs></defs><mask id="41c47eb9-55ac-4301-922e-df392e668e6d"><g id="SvgjsG1029"><svg viewBox="0 0 395.52 128.58021978021978" height="128.58021978021978" width="395.52"><g><svg viewBox="0 0 395.52 128.58021978021978" height="128.58021978021978" width="395.52"><g><svg viewBox="0 0 395.52 128.58021978021978" height="128.58021978021978" width="395.52"><g id="SvgjsG1028"><svg viewBox="0 0 395.52 128.58021978021978" height="128.58021978021978" width="395.52" id="SvgjsSvg1027"><g><svg viewBox="0 0 395.52 128.58021978021978" height="128.58021978021978" width="395.52"><g transform="matrix(1,0,0,1,0,0)"><svg width="395.52" viewBox="1.25 -35 109.19000244140625 35.5" height="128.58021978021978" data-palette-color="url(#2a090675-8c89-4c8a-8ec1-102c8f619b06)"><path d="M9.9-30.6L1.25-30.6 1.25-35 23.25-35 23.25-30.6 14.6-30.6 14.6 0 9.9 0 9.9-30.6ZM39.25-24.5L39.25-24.5Q47.75-24.15 47.75-17.45L47.75-17.45Q47.75-9.1 36.8-9.1L36.8-9.1 34.75-9.1 34.75-12.95 37.15-12.95Q40.5-12.95 41.8-13.98 43.1-15 43.1-17.4L43.1-17.4Q43.1-18.95 41.95-19.73 40.8-20.5 39-20.5L39-20.5Q35.45-20.5 33.42-18 31.4-15.5 31.4-12L31.4-12Q31.4-8.3 33.57-6 35.75-3.7 39.25-3.7L39.25-3.7Q42.4-3.7 44.4-5.25L44.4-5.25 47.4-2.3Q43.95 0.5 39.25 0.5L39.25 0.5Q33.55 0.5 30.15-2.85 26.75-6.2 26.75-11.5L26.75-11.5Q26.75-17.4 30.1-21.05 33.45-24.7 39.25-24.5ZM53 0L53-24 75.05-24Q78.59-24 80.7-22.65L80.7-22.65Q82.84-21.3 83.52-19.15 84.2-17 84.2-14L84.2-14 84.2 0 79.8 0 79.8-14Q79.8-17.9 77.45-19.15L77.45-19.15Q76.25-19.8 72.59-19.8L72.59-19.8 70.55-19.8 70.55 0 66.15 0 66.15-19.8 57.4-19.8 57.4 0 53 0ZM101.94-24.5L101.94-24.5Q110.44-24.15 110.44-17.45L110.44-17.45Q110.44-9.1 99.49-9.1L99.49-9.1 97.44-9.1 97.44-12.95 99.84-12.95Q103.19-12.95 104.49-13.98 105.79-15 105.79-17.4L105.79-17.4Q105.79-18.95 104.64-19.73 103.49-20.5 101.69-20.5L101.69-20.5Q98.14-20.5 96.12-18 94.09-15.5 94.09-12L94.09-12Q94.09-8.3 96.27-6 98.44-3.7 101.94-3.7L101.94-3.7Q105.09-3.7 107.09-5.25L107.09-5.25 110.09-2.3Q106.64 0.5 101.94 0.5L101.94 0.5Q96.24 0.5 92.84-2.85 89.44-6.2 89.44-11.5L89.44-11.5Q89.44-17.4 92.79-21.05 96.14-24.7 101.94-24.5Z" opacity="1" transform="matrix(1,0,0,1,0,0)" fill="white" class="wordmark-text-0" id="SvgjsPath1026"></path></svg></g></svg></g></svg></g></svg></g><g></g></svg></g><defs></defs></svg></g></mask><linearGradient x1="0" x2="1" y1="0.548" y2="0.55" id="2a090675-8c89-4c8a-8ec1-102c8f619b06"><stop stop-color="#ff6cab" offset="0"></stop><stop stop-color="#7366ff" offset="1"></stop></linearGradient><rect width="395.5199890136719" height="128.58021545410156" fill="#ffffff" mask="url(#41c47eb9-55ac-4301-922e-df392e668e6d)" data-fill-palette-color="primary"></rect></svg><rect width="395.52" height="128.58021978021978" fill="none" stroke="none" visibility="hidden"></rect></g></svg></g></svg>