<?xml version="1.0" encoding="UTF-8"?>
<!DOCTYPE svg PUBLIC "-//W3C//DTD SVG 1.1//EN" "http://www.w3.org/Graphics/SVG/1.1/DTD/svg11.dtd">
<svg xmlns="http://www.w3.org/2000/svg" version="1.1" width="201px" height="324px" style="shape-rendering:geometricPrecision; text-rendering:geometricPrecision; image-rendering:optimizeQuality; fill-rule:evenodd; clip-rule:evenodd" xmlns:xlink="http://www.w3.org/1999/xlink">
<g><path style="opacity:0.987" fill="#fc6bac" d="M -0.5,-0.5 C 13.5,-0.5 27.5,-0.5 41.5,-0.5C 41.5,12.5 41.5,25.5 41.5,38.5C 36.6367,38.1805 31.97,38.5139 27.5,39.5C 18.1667,39.5 8.83333,39.5 -0.5,39.5C -0.5,26.1667 -0.5,12.8333 -0.5,-0.5 Z"/></g>
<g><path style="opacity:1" fill="#f86bad" d="M 41.5,-0.5 C 42.1667,-0.5 42.8333,-0.5 43.5,-0.5C 43.5,12.5 43.5,25.5 43.5,38.5C 51.6841,38.1743 59.6841,38.5076 67.5,39.5C 54.1667,39.5 40.8333,39.5 27.5,39.5C 31.97,38.5139 36.6367,38.1805 41.5,38.5C 41.5,25.5 41.5,12.5 41.5,-0.5 Z"/></g>
<g><path style="opacity:0.985" fill="#f56bb1" d="M 43.5,-0.5 C 57.1667,-0.5 70.8333,-0.5 84.5,-0.5C 83.2853,105.824 82.6187,212.157 82.5,318.5C 81.1667,318.5 79.8333,318.5 78.5,318.5C 78.5,225.5 78.5,132.5 78.5,39.5C 74.8333,39.5 71.1667,39.5 67.5,39.5C 59.6841,38.5076 51.6841,38.1743 43.5,38.5C 43.5,25.5 43.5,12.5 43.5,-0.5 Z"/></g>
<g><path style="opacity:0.998" fill="#f16bb3" d="M 84.5,-0.5 C 98.5,-0.5 112.5,-0.5 126.5,-0.5C 126.5,12.5 126.5,25.5 126.5,38.5C 129.059,38.1984 131.393,38.5318 133.5,39.5C 129.833,39.5 126.167,39.5 122.5,39.5C 122.5,132.5 122.5,225.5 122.5,318.5C 109.167,318.5 95.8333,318.5 82.5,318.5C 82.6187,212.157 83.2853,105.824 84.5,-0.5 Z"/></g>
<g><path style="opacity:1" fill="#ea6ab7" d="M 126.5,-0.5 C 140.833,-0.5 155.167,-0.5 169.5,-0.5C 169.571,12.5134 169.238,25.5134 168.5,38.5C 162.31,38.1771 156.31,38.5104 150.5,39.5C 144.833,39.5 139.167,39.5 133.5,39.5C 131.393,38.5318 129.059,38.1984 126.5,38.5C 126.5,25.5 126.5,12.5 126.5,-0.5 Z"/></g>
<g><path style="opacity:1" fill="#e56aba" d="M 169.5,-0.5 C 178.833,-0.5 188.167,-0.5 197.5,-0.5C 197.5,12.5 197.5,25.5 197.5,38.5C 194.941,38.1984 192.607,38.5318 190.5,39.5C 177.167,39.5 163.833,39.5 150.5,39.5C 156.31,38.5104 162.31,38.1771 168.5,38.5C 169.238,25.5134 169.571,12.5134 169.5,-0.5 Z"/></g>
<g><path style="opacity:0.987" fill="#e26abb" d="M 197.5,-0.5 C 198.5,-0.5 199.5,-0.5 200.5,-0.5C 200.5,12.8333 200.5,26.1667 200.5,39.5C 197.167,39.5 193.833,39.5 190.5,39.5C 192.607,38.5318 194.941,38.1984 197.5,38.5C 197.5,25.5 197.5,12.5 197.5,-0.5 Z"/></g>
</svg>
